# xmcd CD database file
#
# Track frame offsets:
#	150
#	17800
#	32635
#	44927
#	57637
#	70005
#	88410
#	103932
#	110500
#	128617
#	145725
#
# Disc length: 2197 seconds
#
# Revision: 0
# Processed by: cddbd v1.5.1PL0 Copyright (c) Steve Scherf et al.
# Submitted via: CDex 1.51
#
DISCID=a408930b
DTITLE=Mike Scott - Lions of Love
DYEAR=1900
DGENRE=New Age
TTITLE0=The lion of love
TTITLE1=I know she's in the building
TTITLE2=What do you want me to do?
TTITLE3=Sensitive children
TTITLE4=City full of ghosts
TTITLE5=All the things she gave
TTITLE6=Building the city of light
TTITLE7=The seaweed shovelling song
TTITLE8=Wonderful disguise
TTITLE9=Everlasting arms
TTITLE10=Experience week song
EXTD=
EXTT0=
EXTT1=
EXTT2=
EXTT3=
EXTT4=
EXTT5=
EXTT6=
EXTT7=
EXTT8=
EXTT9=
EXTT10=
PLAYORDER=
